<?xml version="1.0" encoding="utf-8"?>
<!-- Generator: Adobe Illustrator 25.0.1, SVG Export Plug-In . SVG Version: 6.00 Build 0)  -->
<svg version="1.1" id="Layer_1" xmlns="http://www.w3.org/2000/svg" xmlns:xlink="http://www.w3.org/1999/xlink" x="0px" y="0px"
	 viewBox="0 0 46.2 43.1" style="enable-background:new 0 0 46.2 43.1;" xml:space="preserve">
<style type="text/css">
	.st0{fill:#EAEAEA;stroke:#26A9E1;stroke-width:2;stroke-miterlimit:10;}
	.st1{fill:#595A5A;}
	.st2{fill:#EAEAEA;}
	.st3{fill:#27AAE1;}
</style>
<rect x="1" y="1" class="st0" width="44.2" height="41.1"/>
<rect x="3.1" y="2.9" class="st1" width="40.1" height="37.3"/>
<path class="st2" d="M10.4,7.3h10.1c3-0.1,5.9,0.5,8.6,1.8c6.9,3.1,9.9,11.2,6.8,18.1c-1.4,3-3.8,5.4-6.8,6.8
	c-2.7,1.2-5.6,1.8-8.6,1.8H10.4V7.3z"/>
<path class="st3" d="M21.1,12.3c1.9,0,3.8,0.4,5.6,1.1c1.5,0.7,2.8,1.8,3.8,3.2c0.9,1.5,1.4,3.1,1.3,4.9c0,1.7-0.4,3.4-1.3,4.9
	c-0.9,1.4-2.2,2.5-3.8,3.2c-1.7,0.8-3.7,1.2-5.6,1.2V12.3z"/>
<path class="st3" d="M14.1,15.6v-3.3h3.7v3.3L14.1,15.6z M14.1,30.8V17.2h3.7v13.6H14.1z"/>
</svg>
